<?xml version="1.0" encoding="utf-8"?>
<!-- Generator: Adobe Illustrator 19.0.0, SVG Export Plug-In . SVG Version: 6.00 Build 0)  -->
<svg version="1.1" id="图层_1" xmlns="http://www.w3.org/2000/svg" xmlns:xlink="http://www.w3.org/1999/xlink" x="0px" y="0px"
	 viewBox="-461 463 100 100" style="enable-background:new -461 463 100 100;" xml:space="preserve">
<style type="text/css">
	.st0{fill:#FFFFFF;}
</style>
<title>LOGO</title>
<desc>Created with Sketch.</desc>
<g>
	<polygon id="XMLID_110_" class="st0" points="-398.7,510.3 -393.8,501.9 -388.9,510.3 	"/>
	<polygon id="XMLID_109_" class="st0" points="-413.4,510.3 -408.6,501.9 -403.7,510.3 	"/>
	<polygon id="XMLID_108_" class="st0" points="-383.9,510.3 -379,501.9 -374.2,510.3 	"/>
	<polygon id="XMLID_107_" class="st0" points="-396.3,501.9 -401.2,510.3 -406.1,501.9 	"/>
	<polygon id="XMLID_106_" class="st0" points="-381.5,501.9 -386.4,510.3 -391.3,501.9 	"/>
	<polygon id="XMLID_105_" class="st0" points="-366.8,501.9 -371.6,510.3 -376.5,501.9 	"/>
	<polygon id="XMLID_100_" class="st0" points="-390.5,492 -395.4,500.4 -400.2,492 	"/>
	<polygon id="XMLID_96_" class="st0" points="-375.8,492 -380.6,500.4 -385.5,492 	"/>
	<polygon id="XMLID_93_" class="st0" points="-361,492 -365.8,500.4 -370.7,492 	"/>
	<polygon id="XMLID_92_" class="st0" points="-392.9,500.4 -388,492 -383.2,500.4 	"/>
	<polygon id="XMLID_90_" class="st0" points="-378.1,500.4 -373.2,492 -368.3,500.4 	"/>
	<polygon id="XMLID_82_" class="st0" points="-407.7,500.4 -402.8,492 -397.9,500.4 	"/>
	<polygon id="XMLID_58_" class="st0" points="-384,519.1 -384,531.9 -416.6,550.7 -449.1,531.9 -449.1,494.2 -416.5,475.4 
		-400.9,484.5 -396,476 -416.5,464.1 -458.9,488.6 -459,537.5 -416.6,562 -374.2,537.6 -374.2,519.1 	"/>
</g>
</svg>
